<?xml version="1.0" encoding="utf-8"?>
<!-- Generator: Adobe Illustrator 21.1.0, SVG Export Plug-In . SVG Version: 6.00 Build 0)  -->
<svg version="1.1" xmlns="http://www.w3.org/2000/svg" xmlns:xlink="http://www.w3.org/1999/xlink" x="0px" y="0px"
	 viewBox="0 0 229.3 60.8" style="enable-background:new 0 0 229.3 60.8;" xml:space="preserve">
<style type="text/css">
	.st0{display:none;}
	.st1{display:inline;stroke:#FFFFFF;stroke-miterlimit:10;}
	.st2{fill:none;stroke:#FFFFFF;stroke-miterlimit:10;}
	.st3{fill:#FFFFFF;}
	.st4{fill:#E32522;}
	.st5{fill:none;stroke:#FFFFFF;stroke-width:2;stroke-miterlimit:10;}
</style>
<g id="Laag_3" class="st0">
	<rect x="-17.5" y="-11.1" class="st1" width="260.2" height="81.7"/>
</g>
<g id="Laag_2">
	<g>
		<g>
			<path class="st2" d="M78,20.2c1.1,0,2.1,0.2,3,0.5c0.9,0.3,1.6,0.7,2.2,1.3c0.6,0.5,1.1,1.2,1.4,1.9c0.3,0.7,0.5,1.5,0.5,2.3
				c0,0.7-0.1,1.3-0.2,1.9c-0.1,0.5-0.4,1-0.6,1.4c-0.3,0.4-0.6,0.7-1.1,1c-0.4,0.3-0.9,0.5-1.4,0.7c2.5,0.9,3.8,2.6,3.8,5.1
				c0,1.2-0.2,2.3-0.7,3.1c-0.4,0.9-1,1.6-1.8,2.2c-0.7,0.6-1.6,1-2.5,1.3c-1,0.3-2,0.4-3,0.4c-1.1,0-2-0.1-2.9-0.4S73,42.5,72.3,42
				c-0.7-0.5-1.2-1.1-1.7-1.9c-0.5-0.8-0.9-1.7-1.3-2.7l2.2-0.9c0.2-0.1,0.4-0.1,0.6-0.2c0.2,0,0.4,0,0.5,0c0.3,0,0.6,0.1,0.9,0.2
				c0.3,0.1,0.5,0.3,0.6,0.6c0.5,0.9,1,1.5,1.5,1.9c0.5,0.4,1.1,0.6,1.8,0.6c0.5,0,1-0.1,1.4-0.3c0.4-0.2,0.7-0.4,1-0.7
				c0.3-0.3,0.5-0.6,0.6-1c0.1-0.4,0.2-0.7,0.2-1.1c0-0.5,0-0.9-0.1-1.3c-0.1-0.4-0.3-0.7-0.6-1c-0.3-0.3-0.8-0.5-1.4-0.6
				c-0.6-0.2-1.5-0.2-2.6-0.2v-3.3c0.9,0,1.7-0.1,2.3-0.2c0.6-0.1,1-0.3,1.3-0.6c0.3-0.3,0.5-0.6,0.6-0.9c0.1-0.4,0.2-0.8,0.2-1.2
				c0-0.9-0.2-1.6-0.6-2.1c-0.4-0.5-1.1-0.7-2-0.7c-0.4,0-0.7,0.1-1,0.2c-0.3,0.1-0.6,0.2-0.8,0.4c-0.2,0.2-0.4,0.4-0.6,0.6
				c-0.2,0.2-0.3,0.5-0.4,0.8c-0.2,0.5-0.4,0.8-0.6,1c-0.3,0.2-0.6,0.3-1,0.3c-0.1,0-0.2,0-0.3,0c-0.1,0-0.2,0-0.4,0L70,27
				c0.2-1.1,0.5-2.1,1-3c0.5-0.8,1.1-1.5,1.8-2.1c0.7-0.6,1.5-1,2.4-1.3C76,20.4,77,20.2,78,20.2z"/>
			<path class="st2" d="M97,28.8c0.8,0,1.6,0.1,2.4,0.4c0.8,0.3,1.5,0.7,2.2,1.2c0.6,0.6,1.1,1.3,1.5,2.1c0.4,0.9,0.6,1.9,0.6,3
				c0,1.1-0.2,2.1-0.6,3c-0.4,1-1,1.8-1.7,2.5c-0.7,0.7-1.6,1.3-2.6,1.7c-1,0.4-2.1,0.6-3.4,0.6c-1.3,0-2.4-0.2-3.4-0.6
				c-1-0.4-1.9-1-2.6-1.7c-0.7-0.7-1.2-1.6-1.6-2.6c-0.4-1-0.6-2.1-0.6-3.3c0-1.1,0.2-2.3,0.7-3.4c0.4-1.1,1.1-2.3,1.9-3.4l5.1-6.9
				c0.2-0.3,0.6-0.6,1-0.8c0.5-0.2,1-0.3,1.6-0.3h4.3l-6.7,8c-0.1,0.1-0.2,0.2-0.3,0.4c-0.1,0.1-0.2,0.2-0.3,0.4
				c0.4-0.1,0.7-0.2,1.1-0.3C96.1,28.9,96.5,28.8,97,28.8z M91.9,36c0,0.6,0.1,1.1,0.2,1.5c0.1,0.4,0.3,0.8,0.6,1.2
				c0.3,0.3,0.6,0.6,1.1,0.7c0.4,0.2,0.9,0.3,1.5,0.3c0.5,0,1-0.1,1.4-0.3c0.4-0.2,0.8-0.4,1.1-0.8c0.3-0.3,0.6-0.7,0.7-1.2
				c0.2-0.4,0.3-0.9,0.3-1.4c0-0.6-0.1-1.1-0.3-1.6c-0.2-0.5-0.4-0.8-0.7-1.2c-0.3-0.3-0.7-0.6-1.1-0.7c-0.4-0.2-0.9-0.2-1.5-0.2
				c-0.5,0-0.9,0.1-1.3,0.3c-0.4,0.2-0.8,0.4-1.1,0.7c-0.3,0.3-0.5,0.7-0.7,1.2C92,34.9,91.9,35.4,91.9,36z"/>
			<path class="st2" d="M121.8,31.8c0,2-0.2,3.7-0.6,5.2c-0.4,1.5-1,2.7-1.8,3.6c-0.8,1-1.6,1.7-2.7,2.1c-1,0.5-2.2,0.7-3.4,0.7
				c-1.2,0-2.3-0.2-3.3-0.7c-1-0.5-1.9-1.2-2.7-2.1c-0.7-1-1.3-2.2-1.8-3.6c-0.4-1.5-0.6-3.2-0.6-5.2c0-2,0.2-3.7,0.6-5.2
				c0.4-1.5,1-2.7,1.8-3.6c0.7-1,1.6-1.7,2.7-2.1c1-0.5,2.1-0.7,3.3-0.7c1.2,0,2.3,0.2,3.4,0.7c1,0.5,1.9,1.2,2.7,2.1
				c0.8,1,1.3,2.2,1.8,3.6C121.6,28.1,121.8,29.9,121.8,31.8z M116.8,31.8c0-1.6-0.1-2.9-0.3-3.9c-0.2-1-0.5-1.8-0.8-2.4
				c-0.3-0.6-0.7-1-1.1-1.2c-0.4-0.2-0.8-0.3-1.3-0.3c-0.4,0-0.8,0.1-1.3,0.3c-0.4,0.2-0.8,0.6-1.1,1.2c-0.3,0.6-0.6,1.4-0.8,2.4
				c-0.2,1-0.3,2.3-0.3,3.9c0,1.6,0.1,2.9,0.3,3.9c0.2,1,0.4,1.8,0.8,2.4c0.3,0.6,0.7,1,1.1,1.2c0.4,0.2,0.8,0.3,1.3,0.3
				c0.4,0,0.8-0.1,1.3-0.3c0.4-0.2,0.8-0.6,1.1-1.2c0.3-0.6,0.6-1.4,0.8-2.4C116.7,34.7,116.8,33.4,116.8,31.8z"/>
		</g>
		<g>
			<path class="st3" d="M137.2,19.5c1.7,0,3.3,0.3,4.8,0.8c1.4,0.5,2.7,1.3,3.7,2.4c1,1,1.8,2.3,2.4,3.7c0.6,1.5,0.9,3.1,0.9,4.9
				c0,1.8-0.3,3.5-0.9,5c-0.6,1.5-1.4,2.7-2.4,3.7c-1,1-2.3,1.8-3.7,2.4c-1.4,0.6-3,0.8-4.8,0.8c-1.8,0-3.4-0.3-4.8-0.8
				c-1.4-0.6-2.7-1.3-3.7-2.4c-1-1-1.8-2.3-2.4-3.7c-0.6-1.5-0.9-3.1-0.9-5c0-1.8,0.3-3.5,0.9-4.9c0.6-1.5,1.4-2.7,2.4-3.7
				c1-1,2.3-1.8,3.7-2.4C133.9,19.7,135.5,19.5,137.2,19.5z M137.2,38.1c1.6,0,2.7-0.6,3.5-1.7c0.7-1.1,1.1-2.8,1.1-5.1
				c0-2.3-0.4-4-1.1-5.1c-0.7-1.1-1.9-1.7-3.5-1.7c-1.6,0-2.8,0.6-3.6,1.7c-0.8,1.1-1.1,2.8-1.1,5.1c0,2.3,0.4,4,1.1,5.1
				C134.4,37.5,135.6,38.1,137.2,38.1z"/>
			<path class="st3" d="M152.7,42.8v-23h4.3c0.4,0,0.8,0.1,1.1,0.3c0.3,0.2,0.5,0.5,0.6,0.9l0.4,1.3c0.4-0.4,0.9-0.8,1.4-1.2
				c0.5-0.4,1-0.7,1.5-0.9c0.5-0.2,1.1-0.4,1.8-0.6c0.6-0.1,1.3-0.2,2.1-0.2c1.3,0,2.4,0.2,3.3,0.7c1,0.4,1.8,1,2.5,1.8
				c0.7,0.8,1.2,1.7,1.5,2.8c0.3,1.1,0.5,2.2,0.5,3.5v14.6h-6.9V28.2c0-1.1-0.3-2-0.8-2.6c-0.5-0.6-1.3-0.9-2.3-0.9
				c-0.8,0-1.5,0.2-2.1,0.5c-0.7,0.3-1.3,0.8-1.9,1.3v16.4H152.7z"/>
			<path class="st4" d="M193.3,42.7c-0.7,0-1.1-0.1-1.5-0.3c-0.3-0.2-0.6-0.5-0.8-1.1l-0.5-1.3c-0.6,0.5-1.1,0.9-1.7,1.3
				c-0.5,0.4-1.1,0.7-1.7,0.9c-0.6,0.3-1.2,0.5-1.8,0.6s-1.4,0.2-2.1,0.2c-1.1,0-2-0.1-2.9-0.4c-0.9-0.3-1.6-0.7-2.2-1.2
				c-0.6-0.5-1.1-1.2-1.4-2c-0.3-0.8-0.5-1.7-0.5-2.7c0-0.8,0.2-1.7,0.6-2.5c0.4-0.9,1.1-1.6,2.2-2.3c1-0.7,2.4-1.3,4.1-1.8
				c1.7-0.5,3.9-0.7,6.5-0.7v-1c0-1.4-0.3-2.3-0.8-2.9c-0.6-0.6-1.3-0.9-2.4-0.9c-0.8,0-1.5,0.1-2,0.3c-0.5,0.2-1,0.4-1.4,0.6
				c-0.4,0.2-0.8,0.4-1.2,0.6c-0.4,0.2-0.8,0.3-1.4,0.3c-0.5,0-0.9-0.1-1.2-0.3c-0.3-0.2-0.6-0.5-0.8-0.9l-1.2-2.2
				c1.4-1.2,2.9-2.1,4.6-2.7c1.7-0.6,3.5-0.9,5.4-0.9c1.4,0,2.6,0.2,3.8,0.7c1.1,0.5,2.1,1.1,2.8,1.9c0.8,0.8,1.4,1.8,1.8,2.9
				c0.4,1.1,0.6,2.3,0.6,3.6v14.4H193.3z M185.5,38.5c0.9,0,1.7-0.2,2.3-0.5c0.7-0.3,1.3-0.8,2-1.5v-3.2c-1.4,0-2.5,0.1-3.4,0.3
				c-0.9,0.2-1.6,0.4-2.1,0.7c-0.5,0.3-0.9,0.6-1.1,0.9c-0.2,0.3-0.3,0.7-0.3,1.1c0,0.8,0.2,1.3,0.6,1.7
				C184,38.3,184.6,38.5,185.5,38.5z"/>
			<path class="st4" d="M209.3,13.4c0,0.5-0.1,1.1-0.3,1.5c-0.2,0.5-0.5,0.9-0.9,1.3c-0.4,0.4-0.8,0.7-1.3,0.9
				c-0.5,0.2-1.1,0.3-1.6,0.3c-0.6,0-1.1-0.1-1.6-0.3c-0.5-0.2-0.9-0.5-1.3-0.9c-0.4-0.4-0.7-0.8-0.9-1.3c-0.2-0.5-0.3-1-0.3-1.5
				c0-0.6,0.1-1.1,0.3-1.6c0.2-0.5,0.5-0.9,0.9-1.3c0.4-0.4,0.8-0.7,1.3-0.9c0.5-0.2,1-0.3,1.6-0.3c0.6,0,1.1,0.1,1.6,0.3
				c0.5,0.2,1,0.5,1.3,0.9c0.4,0.4,0.7,0.8,0.9,1.3C209.2,12.3,209.3,12.8,209.3,13.4z M208.5,19.7v23h-6.9v-23H208.5z"/>
			<path class="st4" d="M214,42.7v-23h4.1c0.3,0,0.6,0,0.9,0.1c0.2,0.1,0.4,0.2,0.6,0.3c0.2,0.1,0.3,0.3,0.4,0.5
				c0.1,0.2,0.2,0.5,0.2,0.8l0.4,2.2c0.8-1.3,1.8-2.3,2.8-3.1c1-0.8,2.2-1.1,3.4-1.1c1,0,1.9,0.3,2.5,0.8l-0.9,5.1
				c-0.1,0.3-0.2,0.5-0.4,0.7c-0.2,0.1-0.4,0.2-0.7,0.2c-0.3,0-0.5,0-0.9-0.1c-0.3-0.1-0.8-0.1-1.3-0.1c-1.8,0-3.2,1-4.3,2.9v14.1
				H214z"/>
		</g>
	</g>
	<g>
		<path class="st3" d="M39.1,42c-0.5,0-1-0.1-1.5-0.3l-3.3-1.3H27l-4,1.2c-0.9,0.3-1.8,0.2-2.7,0l-3.6-1.1h-1.9
			c-2.4,0-4.4-2-4.4-4.4v-6.1c0-2.4,2-4.4,4.4-4.4h1.9l5-1.9l4.9,1.9h7.7l4.5-1.8c0.2-0.1,0.4-0.1,0.6,0l4.5,1.8h2
			c2.4,0,4.4,2,4.4,4.4v6.1c0,2.4-2,4.4-4.4,4.4h-2l-3.3,1.3C40.1,41.9,39.6,42,39.1,42z M26.8,39h7.7l3.5,1.4c0.7,0.3,1.4,0.3,2,0
			l3.6-1.4H46c1.7,0,3.1-1.4,3.1-3.1v-6.1c0-1.7-1.4-3.1-3.1-3.1h-2.2l-4.6-1.8l-4.5,1.8h-8.2l-4.7-1.8L17,26.7h-2.2
			c-1.7,0-3.1,1.4-3.1,3.1v6.1c0,1.7,1.4,3.1,3.1,3.1h2.1l3.8,1.2c0.6,0.2,1.3,0.2,1.9,0L26.8,39z"/>
		<path class="st3" d="M21.7,42.9c-5.5,0-10-4.5-10-10s4.5-10,10-10s10,4.5,10,10S27.2,42.9,21.7,42.9z M21.7,25.5
			c-4.1,0-7.4,3.3-7.4,7.4s3.3,7.4,7.4,7.4s7.4-3.3,7.4-7.4S25.7,25.5,21.7,25.5z"/>
		<path class="st3" d="M39.1,42.9c-5.5,0-10-4.5-10-10s4.5-10,10-10c5.5,0,10,4.5,10,10S44.6,42.9,39.1,42.9z M39.1,25.5
			c-4.1,0-7.4,3.3-7.4,7.4s3.3,7.4,7.4,7.4s7.4-3.3,7.4-7.4S43.2,25.5,39.1,25.5z"/>
		<path class="st3" d="M21.7,38.9c-3.3,0-6.1-2.7-6.1-6.1c0-3.3,2.7-6.1,6.1-6.1s6.1,2.7,6.1,6.1C27.7,36.2,25,38.9,21.7,38.9z
			 M21.7,28.4c-2.5,0-4.5,2-4.5,4.5s2,4.5,4.5,4.5s4.5-2,4.5-4.5S24.1,28.4,21.7,28.4z"/>
		<path class="st3" d="M39.1,38.9c-3.3,0-6.1-2.7-6.1-6.1c0-3.3,2.7-6.1,6.1-6.1s6.1,2.7,6.1,6.1C45.2,36.2,42.4,38.9,39.1,38.9z
			 M39.1,28.4c-2.5,0-4.5,2-4.5,4.5c0,2.5,2,4.5,4.5,4.5s4.5-2,4.5-4.5C43.6,30.4,41.6,28.4,39.1,28.4z"/>
		<path class="st3" d="M21.7,36.9c-2.2,0-4.1-1.8-4.1-4.1s1.8-4.1,4.1-4.1s4.1,1.8,4.1,4.1S23.9,36.9,21.7,36.9z M21.7,30.4
			c-1.4,0-2.5,1.1-2.5,2.5c0,1.4,1.1,2.5,2.5,2.5c1.4,0,2.5-1.1,2.5-2.5C24.1,31.5,23,30.4,21.7,30.4z"/>
		<path class="st3" d="M39.1,36.9c-2.2,0-4.1-1.8-4.1-4.1s1.8-4.1,4.1-4.1s4.1,1.8,4.1,4.1S41.3,36.9,39.1,36.9z M39.1,30.4
			c-1.4,0-2.5,1.1-2.5,2.5c0,1.4,1.1,2.5,2.5,2.5s2.5-1.1,2.5-2.5C41.6,31.5,40.5,30.4,39.1,30.4z"/>
		<g>
			<path class="st3" d="M15.6,23.1L15.6,23.1c-0.3-0.3-0.2-0.7,0.1-0.9c2-1.5,4.3-2,6.8-1.5c0.4,0.1,0.6,0.4,0.5,0.8l0,0
				c-0.1,0.3-0.4,0.5-0.8,0.5c-1.6-0.3-3.8-0.3-5.8,1.3C16.2,23.4,15.8,23.4,15.6,23.1z"/>
		</g>
		<g>
			<path class="st3" d="M15.6,20.3L15.6,20.3c-0.2-0.3-0.2-0.6,0.1-0.8c1.6-1.2,3.6-1.7,5.7-1.2c0.3,0.1,0.5,0.4,0.4,0.7l0,0
				c-0.1,0.3-0.4,0.5-0.7,0.4c-1.3-0.3-3.1-0.2-4.8,1C16.1,20.6,15.8,20.6,15.6,20.3z"/>
		</g>
		<g>
			<path class="st3" d="M37.2,21.4L37.2,21.4c-0.1-0.4,0.1-0.7,0.5-0.8c2.4-0.6,4.8-0.2,6.9,1.2c0.3,0.2,0.4,0.6,0.1,0.9l0,0
				c-0.2,0.3-0.6,0.3-0.9,0.1c-1.4-0.9-3.4-1.7-5.8-1.1C37.7,21.9,37.3,21.7,37.2,21.4z"/>
		</g>
		<g>
			<path class="st3" d="M38.3,18.8L38.3,18.8c-0.1-0.3,0.1-0.7,0.4-0.7c2-0.5,4-0.1,5.7,1c0.3,0.2,0.3,0.6,0.1,0.8l0,0
				c-0.2,0.2-0.5,0.3-0.8,0.1c-1.1-0.8-2.8-1.4-4.8-0.9C38.7,19.3,38.4,19.1,38.3,18.8z"/>
		</g>
		<circle class="st3" cx="11.6" cy="32.8" r="0"/>
	</g>
	<circle class="st5" cx="30.4" cy="30.4" r="29.4"/>
</g>
</svg>
