<?xml version="1.0" encoding="utf-8"?>
<!-- Generator: Adobe Illustrator 21.1.0, SVG Export Plug-In . SVG Version: 6.00 Build 0)  -->
<svg version="1.1" xmlns="http://www.w3.org/2000/svg" xmlns:xlink="http://www.w3.org/1999/xlink" x="0px" y="0px"
	 viewBox="0 0 255.1 255.1" style="enable-background:new 0 0 255.1 255.1;" xml:space="preserve">
<style type="text/css">
	.st0{fill:#FFFFFF;}
	.st1{fill:#E22623;}
</style>
<g id="Laag_2">
	<rect x="0" y="0" class="st0" width="255.1" height="255.1"/>
</g>
<g id="Laag_3">
	<path class="st1" d="M127.6,255.1C57.2,255.1,0,197.9,0,127.6S57.2,0,127.6,0s127.6,57.2,127.6,127.6S197.9,255.1,127.6,255.1z
		 M127.6,10.1c-64.8,0-117.5,52.7-117.5,117.5S62.8,245,127.6,245c64.8,0,117.5-52.7,117.5-117.5S192.3,10.1,127.6,10.1z"/>
</g>
<g id="Laag_1">
	<g>
		<path class="st1" d="M168.6,182.2c-2.4,0-4.9-0.5-7.2-1.4l-15.5-6.3h-34.2l-18.9,5.5c-4.2,1.2-8.6,1.2-12.7-0.1l-17.1-5.3h-8.9
			c-11.5,0-20.9-9.4-20.9-20.9v-28.7c0-11.5,9.4-20.9,20.9-20.9h9l23.4-9l23.3,9H146l21.1-8.4c1-0.4,2-0.4,3,0l21.4,8.4h9.4
			c11.5,0,20.9,9.4,20.9,20.9v28.7c0,11.5-9.4,20.9-20.9,20.9h-9.4l-15.8,6.3C173.5,181.7,171,182.2,168.6,182.2z M110.9,168.2h36.3
			l16.6,6.8c3.1,1.3,6.5,1.3,9.6,0l16.9-6.8h10.6c8.1,0,14.7-6.6,14.7-14.7v-28.7c0-8.1-6.6-14.7-14.7-14.7h-10.6l-21.7-8.6
			l-21.4,8.6h-38.5l-22.1-8.6l-22.2,8.6H54.2c-8.1,0-14.7,6.6-14.7,14.7v28.7c0,8.1,6.6,14.7,14.7,14.7H64l18,5.6
			c3,0.9,6.1,1,9.1,0.1L110.9,168.2z"/>
		<path class="st1" d="M86.5,186.6c-26.1,0-47.3-21.2-47.3-47.3S60.5,92,86.5,92s47.3,21.2,47.3,47.3S112.6,186.6,86.5,186.6z
			 M86.5,104.5c-19.2,0-34.8,15.6-34.8,34.8S67.4,174,86.5,174s34.8-15.6,34.8-34.8S105.7,104.5,86.5,104.5z"/>
		<path class="st1" d="M168.6,186.6c-26.1,0-47.3-21.2-47.3-47.3S142.5,92,168.6,92c26.1,0,47.3,21.2,47.3,47.3
			S194.7,186.6,168.6,186.6z M168.6,104.5c-19.2,0-34.8,15.6-34.8,34.8s15.6,34.8,34.8,34.8s34.8-15.6,34.8-34.8
			S187.8,104.5,168.6,104.5z"/>
		<path class="st1" d="M86.5,167.7c-15.7,0-28.5-12.8-28.5-28.5s12.8-28.5,28.5-28.5s28.5,12.8,28.5,28.5S102.3,167.7,86.5,167.7z
			 M86.5,118.1c-11.6,0-21,9.4-21,21s9.4,21,21,21s21-9.4,21-21S98.1,118.1,86.5,118.1z"/>
		<path class="st1" d="M168.6,167.8c-15.7,0-28.5-12.8-28.5-28.5c0-15.7,12.8-28.5,28.5-28.5s28.5,12.8,28.5,28.5
			C197.1,155,184.3,167.8,168.6,167.8z M168.6,118.2c-11.6,0-21,9.4-21,21c0,11.6,9.4,21,21,21c11.6,0,21-9.4,21-21
			C189.6,127.7,180.2,118.2,168.6,118.2z"/>
		<path class="st1" d="M86.5,158.3c-10.6,0-19.2-8.6-19.2-19.2c0-10.6,8.6-19.2,19.2-19.2s19.2,8.6,19.2,19.2
			C105.7,149.7,97.1,158.3,86.5,158.3z M86.5,127.5c-6.4,0-11.7,5.2-11.7,11.7c0,6.4,5.2,11.7,11.7,11.7s11.7-5.2,11.7-11.7
			C98.2,132.8,93,127.5,86.5,127.5z"/>
		<path class="st1" d="M168.6,158.4c-10.6,0-19.2-8.6-19.2-19.2c0-10.6,8.6-19.2,19.2-19.2s19.2,8.6,19.2,19.2
			C187.7,149.8,179.1,158.4,168.6,158.4z M168.6,127.6c-6.4,0-11.7,5.2-11.7,11.7c0,6.4,5.2,11.7,11.7,11.7s11.7-5.2,11.7-11.7
			C180.2,132.8,175,127.6,168.6,127.6z"/>
		<g>
			<path class="st1" d="M57.8,93.3L57.8,93.3c-1.2-1.3-1-3.4,0.5-4.4c9.2-7,20.4-9.5,32.1-7c1.7,0.4,2.8,2.1,2.3,3.8l0,0
				c-0.4,1.5-2,2.5-3.5,2.1c-7.6-1.6-17.7-1.4-27.3,5.9C60.7,94.7,58.9,94.5,57.8,93.3z"/>
		</g>
		<g>
			<path class="st1" d="M57.8,80.2L57.8,80.2c-1.1-1.2-0.9-3,0.4-4c7.7-5.8,17-7.8,26.7-5.8c1.5,0.3,2.5,1.9,2.1,3.4l0,0
				c-0.4,1.4-1.8,2.2-3.2,1.9c-6.3-1.3-14.5-1.1-22.4,4.9C60.3,81.4,58.7,81.2,57.8,80.2z"/>
		</g>
		<g>
			<path class="st1" d="M159.8,85.3L159.8,85.3c-0.6-1.7,0.4-3.5,2.1-3.9c11.2-2.9,22.5-0.9,32.3,5.9c1.5,1,1.8,3,0.7,4.4l0,0
				c-1,1.2-2.8,1.5-4.1,0.6c-6.4-4.4-15.8-8.1-27.4-5C161.9,87.7,160.3,86.8,159.8,85.3z"/>
		</g>
		<g>
			<path class="st1" d="M164.7,73.1L164.7,73.1c-0.5-1.5,0.4-3.1,1.9-3.5c9.3-2.4,18.7-0.7,26.9,4.9c1.3,0.9,1.6,2.7,0.6,3.9l0,0
				c-0.9,1.1-2.5,1.3-3.6,0.5c-5.3-3.6-13-6.6-22.6-4.1C166.6,75.2,165.2,74.5,164.7,73.1z"/>
		</g>
		<polygon class="st1" points="38.8,139 38.9,139 38.9,139 38.8,139 		"/>
	</g>
</g>
</svg>
