<?xml version="1.0" encoding="utf-8"?>
<!-- Generator: Adobe Illustrator 21.1.0, SVG Export Plug-In . SVG Version: 6.00 Build 0)  -->
<svg version="1.1" id="Laag_1" xmlns="http://www.w3.org/2000/svg" xmlns:xlink="http://www.w3.org/1999/xlink" x="0px" y="0px"
	 viewBox="0 0 160 160" style="enable-background:new 0 0 160 160;" xml:space="preserve">
<style type="text/css">
	.st0{fill:#BCBCBC;}
	.st1{fill:#ADADAD;}
	.st2{fill:url(#SVGID_1_);}
	.st3{fill:url(#SVGID_2_);}
	.st4{fill:#9D9D9D;}
	.st5{fill:url(#SVGID_3_);}
	.st6{fill:url(#SVGID_4_);}
	.st7{fill:url(#SVGID_5_);}
	.st8{fill:url(#SVGID_6_);}
</style>
<g>
	<polygon class="st0" points="40.7,11.8 30.3,29.8 61.5,11.7 	"/>
	<g>
		<polygon class="st1" points="148.5,61.9 148.6,98 159,79.9 		"/>
		<polygon class="st1" points="98.8,148.3 130,130.2 148.6,119.5 142.4,108.7 125.7,80 103,119.5 86.4,148.3 80.2,159 		"/>
	</g>
	<g>
		
			<linearGradient id="SVGID_1_" gradientUnits="userSpaceOnUse" x1="7684.5532" y1="-704.8687" x2="7694.9683" y2="-704.8687" gradientTransform="matrix(-1 6.920986e-04 -6.920986e-04 -1 7695.7812 -630.1398)">
			<stop  offset="0" style="stop-color:#707070"/>
			<stop  offset="0.1557" style="stop-color:#7E7E7E"/>
			<stop  offset="0.4069" style="stop-color:#909090"/>
			<stop  offset="0.6776" style="stop-color:#9A9A9A"/>
			<stop  offset="1" style="stop-color:#9D9D9D"/>
		</linearGradient>
		<polygon class="st2" points="11.7,98.1 11.7,62 1.3,80.1 		"/>
		
			<linearGradient id="SVGID_2_" gradientUnits="userSpaceOnUse" x1="7593.332" y1="-764.1187" x2="7684.5532" y2="-764.1187" gradientTransform="matrix(-1 6.920986e-04 -6.920986e-04 -1 7695.7812 -630.1398)">
			<stop  offset="0" style="stop-color:#707070"/>
			<stop  offset="1" style="stop-color:#9D9D9D"/>
		</linearGradient>
		<polygon class="st3" points="30.3,130.3 61.6,148.3 80.2,159 86.4,148.3 103,119.5 57.4,119.5 24.1,119.5 11.7,119.5 		"/>
	</g>
	<g>
		<polygon class="st4" points="40.8,148.3 61.6,148.3 30.3,130.3 		"/>
		<polygon class="st4" points="24.1,119.5 57.4,119.5 34.5,80 17.9,51.3 11.7,40.5 11.7,62 11.7,98.1 11.7,119.5 		"/>
	</g>
	<g>
		
			<linearGradient id="SVGID_3_" gradientUnits="userSpaceOnUse" x1="7581.9297" y1="-645.6188" x2="7576.7222" y2="-636.5994" gradientTransform="matrix(-1 6.920986e-04 -6.920986e-04 -1 7695.7812 -630.1398)">
			<stop  offset="0" style="stop-color:#797979"/>
			<stop  offset="0.1403" style="stop-color:#909090"/>
			<stop  offset="0.3271" style="stop-color:#A8A8A8"/>
			<stop  offset="0.5005" style="stop-color:#B7B7B7"/>
			<stop  offset="0.6464" style="stop-color:#BCBCBC"/>
		</linearGradient>
		<polygon class="st5" points="119.5,11.7 98.7,11.7 129.9,29.7 		"/>
		
			<linearGradient id="SVGID_4_" gradientUnits="userSpaceOnUse" x1="7678.6787" y1="-693.0137" x2="7626.5557" y2="-618.5739" gradientTransform="matrix(-1 6.920986e-04 -6.920986e-04 -1 7695.7812 -630.1398)">
			<stop  offset="0" style="stop-color:#696969"/>
			<stop  offset="1" style="stop-color:#BCBCBC"/>
		</linearGradient>
		<polygon class="st6" points="17.9,51.3 34.5,80 57.3,40.5 73.9,11.7 80.1,1 61.5,11.7 30.3,29.8 11.7,40.5 		"/>
	</g>
	<g>
		
			<linearGradient id="SVGID_5_" gradientUnits="userSpaceOnUse" x1="7581.9297" y1="-764.1187" x2="7576.7222" y2="-773.138" gradientTransform="matrix(-1 6.920986e-04 -6.920986e-04 -1 7695.7812 -630.1398)">
			<stop  offset="0" style="stop-color:#838383"/>
			<stop  offset="0.1548" style="stop-color:#949494"/>
			<stop  offset="0.353" style="stop-color:#A2A2A2"/>
			<stop  offset="0.5947" style="stop-color:#AAAAAA"/>
			<stop  offset="1" style="stop-color:#ADADAD"/>
		</linearGradient>
		<polygon class="st7" points="119.6,148.2 130,130.2 98.8,148.3 		"/>
		
			<linearGradient id="SVGID_6_" gradientUnits="userSpaceOnUse" x1="7586.0166" y1="-659.2303" x2="7528.2715" y2="-728.0483" gradientTransform="matrix(-1 6.920986e-04 -6.920986e-04 -1 7695.7812 -630.1398)">
			<stop  offset="0" style="stop-color:#838383"/>
			<stop  offset="0.3026" style="stop-color:#8A8A8A"/>
			<stop  offset="0.7638" style="stop-color:#9F9F9F"/>
			<stop  offset="1" style="stop-color:#ADADAD"/>
		</linearGradient>
		<path class="st8" d="M142.4,108.7l6.2,10.7l0-21.5l0-36.1v0l0-21.5l-12.4,0l0,0l-33.2,0L125.7,80L142.4,108.7z"/>
	</g>
	<polygon class="st0" points="80.1,1 73.9,11.7 57.3,40.5 102.9,40.5 136.1,40.5 148.5,40.5 	"/>
</g>
<g>
	<g>
		<path class="st4" d="M56.7,77.5c1.1-1.2,1.6-2.9,1.6-5c0-1.8-0.4-3.2-1.3-4.4c-0.8-1.2-1.9-1.9-3.2-2.3c-1.1-0.3-2.2-0.3-3.1-0.3
			h-4.6v14.1H51C53.5,79.6,55.4,78.8,56.7,77.5z M49.5,68.4h1.7c1.8,0,2.5,0.8,2.9,1.4c0.5,0.7,0.7,1.7,0.7,2.7
			c0,1.2-0.3,2.1-0.8,2.8c-0.6,0.8-1.6,1.3-2.9,1.3h-1.7V68.4z"/>
		<polygon class="st4" points="87.3,79.6 87.3,65.4 83.9,65.4 83.9,73.4 78.7,65.5 78.6,65.5 78.6,65.4 75.2,65.4 75.2,79.6 
			78.6,79.6 78.6,71.6 83.8,79.6 		"/>
		<circle class="st4" cx="112.8" cy="72.5" r="1.4"/>
		<polygon class="st4" points="114.2,76.1 109.7,76.1 109.7,68.8 114.2,68.8 114.2,65.4 106.3,65.4 106.3,79.6 114.2,79.6 		"/>
		<path class="st4" d="M96.8,79.9c3.4,0,6.5-2.4,7.2-5.8h-3.8c-0.6,1.3-2,2.2-3.4,2.2c-2.1,0-3.8-1.7-3.8-3.8c0-2.1,1.7-3.8,3.8-3.8
			c1.5,0,2.8,0.9,3.4,2.2h3.8c-0.7-3.3-3.7-5.8-7.2-5.8c-4.1,0-7.4,3.3-7.4,7.4C89.5,76.5,92.8,79.9,96.8,79.9z"/>
		<polygon class="st4" points="62.3,79.6 65.9,70.2 69.5,79.6 73.2,79.6 67.8,65.4 64,65.4 58.5,79.6 		"/>
		
			<rect x="64.6" y="76.5" transform="matrix(0.7071 -0.7071 0.7071 0.7071 -35.6729 69.3511)" class="st4" width="2.5" height="2.5"/>
	</g>
	<g>
		<polygon class="st4" points="79,83.1 75.6,83.1 75.6,103.5 83.3,103.5 83.3,100 79,100 		"/>
		<polygon class="st4" points="85.3,83.1 81.9,83.1 81.9,97.3 89.5,97.3 89.5,93.9 85.3,93.9 		"/>
		<polygon class="st4" points="57.8,83.1 54.2,92.5 50.6,83.1 46.9,83.1 52.3,97.3 56.1,97.3 61.6,83.1 		"/>
		<polygon class="st4" points="54.2,103.8 55.7,99.3 52.7,99.3 		"/>
		<path class="st4" d="M105.2,83.1h-3.7l4.1,10.4l0.2,0.5v6.2c0,1.2-0.6,1.8-1.6,1.8v0l-0.1,0c-0.1,0-0.2,0-0.3,0
			c-0.1,0-0.3-0.1-0.5-0.2c-0.1-0.1-0.3-0.2-0.5-0.4c-0.1-0.1-0.1-0.1-0.2-0.2c-0.4-0.3-0.8-0.5-1.2-0.7l0,0
			c-0.2-0.1-0.5-0.2-0.7-0.2c0,0-0.1,0-0.1,0c-0.2,0-0.5-0.1-0.7-0.1c0,0-0.1,0-0.1,0c-0.2,0-0.4,0-0.5,0l-0.3,0c0,0-0.1,0-0.1,0
			l-0.3,0.1c-0.5,0.1-1,0.3-1.4,0.6c-0.4,0.3-0.7,0.5-1,0.8c-0.1,0.1-0.1,0.1-0.2,0.2c-0.4,0.4-0.6,0.6-1,0.7l-0.2,0.1l-0.2,0
			c-0.1,0-0.2,0-0.2,0c0,0-0.1,0-0.1,0c-0.1,0-0.2,0-0.3,0c0,0-0.1,0-0.1,0l0,0l0,0c0,0-0.1,0-0.1,0c-0.1,0-0.2,0-0.3,0
			c-0.3,0-0.5-0.1-0.8-0.3c-0.1-0.1-0.2-0.1-0.3-0.2c-0.2-0.1-0.4-0.2-0.6-0.3c-0.3-0.2-0.7-0.3-1.1-0.3c-0.2,0-0.4,0-0.6,0
			c0.2,0.1,0.4,0.2,0.5,0.3c0.3,0.2,0.5,0.3,0.7,0.6l0.7,0.8c0.3,0.3,0.6,0.6,0.9,0.7c0.2,0.1,0.3,0.2,0.5,0.2l0,0c0,0,0.1,0,0.1,0
			l0,0c0.2,0.1,0.4,0.1,0.6,0.2l0,0c0.2,0,0.4,0.1,0.6,0.1l0.3,0c0.1,0,0.2,0,0.3,0l0.1,0c0.2,0,0.4-0.1,0.6-0.1c0,0,0.1,0,0.1,0
			c0.2-0.1,0.4-0.1,0.6-0.2c0.4-0.2,0.8-0.4,1.1-0.6c0.3-0.2,0.5-0.3,0.7-0.4c0.2-0.1,0.4-0.1,0.5-0.1l0.1,0l0.2,0
			c0.1,0,0.1,0,0.2,0c0,0,0.1,0,0.1,0c0.1,0,0.1,0,0.2,0c0,0,0.1,0,0.1,0l0,0l0,0c0,0,0,0,0.1,0c0,0,0.1,0,0.1,0.1l0,0
			c0.1,0.1,0.3,0.2,0.5,0.3c0.1,0,0.1,0.1,0.2,0.1c0.2,0.2,0.4,0.3,0.7,0.5c0.4,0.3,0.9,0.5,1.4,0.7c0.4,0.1,0.8,0.2,1.3,0.2l0.1,0
			c0,0,0,0,0,0l0,0l0,0c0,0,0,0,0,0l0.1,0c1.6,0,2.9-0.5,3.7-1.4c0.8-0.9,1.2-2.2,1.2-3.8v-6.5l0.1-0.2l4.1-10.4h-3.7l-2.3,6.5
			L105.2,83.1z"/>
		<circle class="st4" cx="98.4" cy="90.2" r="1.4"/>
		<polygon class="st4" points="99.8,93.9 95.3,93.9 95.3,86.6 99.8,86.6 99.8,83.1 91.9,83.1 91.9,97.3 99.8,97.3 		"/>
		<polygon class="st4" points="68.6,83.1 64.7,83.1 59.3,97.3 63,97.3 66.6,87.9 70.2,97.3 74,97.3 		"/>
		
			<rect x="65.4" y="94.2" transform="matrix(0.7071 -0.7071 0.7071 0.7071 -47.9816 75.0885)" class="st4" width="2.5" height="2.5"/>
	</g>
	<g>
		<path class="st4" d="M67.5,108h-1.2v0.6h1.1v0.8h-1.1v1.5h-1v-3.7h2.1V108z"/>
		<path class="st4" d="M71.1,108H70v0.6h1.1v0.8H70v0.6h1.1v0.8H69v-3.7h2.1V108z"/>
		<path class="st4" d="M74.8,108.2c-0.1-0.1-0.2-0.1-0.3-0.2c-0.1,0-0.2-0.1-0.3-0.1c-0.1,0-0.2,0-0.3,0.1c-0.1,0.1-0.1,0.1-0.1,0.2
			c0,0.1,0,0.1,0.1,0.2c0,0,0.1,0.1,0.2,0.1c0.1,0,0.1,0.1,0.2,0.1c0.1,0,0.2,0,0.2,0.1c0.3,0.1,0.5,0.2,0.7,0.4
			c0.1,0.2,0.2,0.4,0.2,0.7c0,0.2,0,0.4-0.1,0.5c-0.1,0.2-0.2,0.3-0.3,0.4c-0.1,0.1-0.3,0.2-0.5,0.3c-0.2,0.1-0.4,0.1-0.6,0.1
			c-0.5,0-0.9-0.1-1.3-0.4l0.4-0.8c0.1,0.1,0.3,0.2,0.4,0.3c0.1,0.1,0.3,0.1,0.4,0.1c0.2,0,0.3,0,0.4-0.1c0.1-0.1,0.1-0.2,0.1-0.2
			c0-0.1,0-0.1,0-0.1c0,0-0.1-0.1-0.1-0.1c0,0-0.1-0.1-0.2-0.1c-0.1,0-0.2-0.1-0.3-0.1c-0.1,0-0.2-0.1-0.4-0.1
			c-0.1,0-0.2-0.1-0.3-0.2c-0.1-0.1-0.2-0.2-0.2-0.3c-0.1-0.1-0.1-0.3-0.1-0.5c0-0.2,0-0.3,0.1-0.5c0.1-0.1,0.1-0.3,0.3-0.4
			c0.1-0.1,0.2-0.2,0.4-0.2c0.2-0.1,0.3-0.1,0.5-0.1c0.2,0,0.4,0,0.6,0.1c0.2,0.1,0.4,0.1,0.6,0.2L74.8,108.2z"/>
		<path class="st4" d="M78.4,108v2.9h-1V108h-0.8v-0.8h2.5v0.8H78.4z"/>
		<path class="st4" d="M81.6,107.2v3.7h-1v-3.7H81.6z"/>
		<path class="st4" d="M84,107.2l0.9,2.3l0.9-2.3h1l-1.6,3.7h-0.8l-1.6-3.7H84z"/>
		<path class="st4" d="M90.2,110.3h-1.4l-0.2,0.6h-1l1.4-3.7H90l1.4,3.7h-1L90.2,110.3z M89.9,109.5l-0.4-1.2l-0.4,1.2H89.9z"/>
		<path class="st4" d="M93.8,107.2v2.9h1.2v0.8h-2.1v-3.7H93.8z"/>
	</g>
</g>
</svg>
