<?xml version="1.0" encoding="utf-8"?>
<!-- Generator: Adobe Illustrator 21.1.0, SVG Export Plug-In . SVG Version: 6.00 Build 0)  -->
<svg version="1.1" id="Laag_1" xmlns="http://www.w3.org/2000/svg" xmlns:xlink="http://www.w3.org/1999/xlink" x="0px" y="0px"
	 viewBox="0 0 196 160" style="enable-background:new 0 0 196 160;" xml:space="preserve">
<style type="text/css">
	.st0{fill:#999999;}
</style>
<g>
	<path class="st0" d="M69.8,32c0-24.7-18.2-31-32.9-31C17.1,1,1,17.1,1,36.2c0,12.9,13,20,13,20l12.1-11c0,0-7.7-2.4-7.7-10.1
		c0-8.6,6.4-17.4,18.6-17.4c7.5,0,17,5,17,17c0,11.3-8.9,19.9-17.7,27.7c6.3-14.5,9-31.3,9-31.3s-3.9,1.7-6.5,2.6
		c-2.6,0.9-5.5,1.5-5.5,1.5s-4,14-6.2,19.7c-5.2,13.3-15,27.9-15,28.5c2.4,0,14.4-0.3,18.3-0.5C31,83,69.8,59.8,69.8,32z"/>
	<path class="st0" d="M72.7,73.4c14.6,0,19.1-24.4,23.5-40.8C94.7,33,90,33.9,86,34.7c-0.5,2-1.8,8.4-5.6,19.7
		c-1.1,3.3-3.4,5.9-5,5.9c-1.7,0-1.6-2.6-1.5-3.6c0.5-6.2,7.4-21.5,7.4-21.5c-3,0.8-9.5,2.5-9.5,2.5c-2.6,5.3-7.4,18-7.8,22.2
		C63.3,66.5,64.8,73.4,72.7,73.4z"/>
	<path class="st0" d="M106,25c-1.5,0.5-3.3,1-5.3,1.7c0,0-3.9,13.1-7.7,25.5c-3.6,11.8-5.7,18.4-6.3,20.4c0,0,9.6-3,13.5-3.9
		c0,0,3.5-18.4,5.4-24.8c1.4-4.8,4.7-14.4,6.1-18.6c1.1,0,2.3,0.1,3.5,0.1c21.8,0.2,20.8-17.9,20.8-17.9c-3.8,3.7-7.2,4.2-17,4.4
		c-14.8,0.2-21.4-5-33.7-2.1c-10.1,2.3-11.9,17.4-11.9,17.4c2.8-2,6.6-4.1,10.7-4.5C90.8,22,95.2,24.1,106,25z"/>
	<path class="st0" d="M120.2,54.7c-1.9-0.1-3.8-1.8-3.8-6c0-4.7,3.8-12.9,5.9-12.9c3.4,0-2.7,11.1-2.7,11.1s5.6-0.8,8.7-2
		c0.9-1.1,3.5-6.5,3.5-10.1c0-5.6-2.7-8-7.9-8c-6.1,0-18.2,10.4-18.2,26.7c0,13,8.1,15.1,13.1,15.1c9,0,16.3-7.7,20.7-16.3
		c2.7-5.2,8.8-12,12.8-12c0.6,0,1,0.3,0.9,1.2c-0.6,8.2-12.4,19.9-5.6,27.3c7.6,8.2,29.1-7.9,30.7-10.1c0.1-1.7-2.1-10.6-3.5-15.2
		c-2.3,4.2-12.6,14.2-15,9.8c-1.5-2.8,7.5-14.1,7.5-21c0-3.9-2-5.2-5.4-5.2c-5.5,0-14.8,7.6-14.8,7.6s10.9-28.3,11.3-29l-15.2,7.4
		c0,0-5.8,18.9-10.3,28.8C129.5,49.5,124.8,54.9,120.2,54.7z"/>
	<path class="st0" d="M72,75.3c0,0-12.2,2.8-15.2,4.3c-0.3,1-6.5,15.3-7.1,41.3c0,0-5.6-17.6,0.2-45.4c0,0-10.4,6.2-16.5,10.7
		c0,0-4.9,27.8,9.8,58.8c9.4-4.1,12.5-5.4,18.6-7.9C61.7,137,57.3,108.4,72,75.3z"/>
	<path class="st0" d="M71.9,125.6c5,1.6,10.9-3.3,15-9.8c1,1.4,2.5,2.3,4.7,2.4c0,0,3.5-19.9,10.7-41.2c0,0-6.8,0.9-10.7,3.9
		c-0.2,0.2-0.4,0.4-0.7,0.8c-0.7-0.9-1.6-1.6-2.6-2c-5.4-2.1-16.6,2-21.4,16.7C62.2,110.8,64.8,123.3,71.9,125.6z M78.6,96.7
		c1.1-3.2,3.9-7.7,6.3-6.8c1.5,0.6,1.5,5,0.3,9.6c-1,3.9-4.3,8.8-6.5,7.8C76.1,106.2,77.8,99.2,78.6,96.7z"/>
	<path class="st0" d="M92.5,126.5l12.8-4.2c7.6-31.2,11.1-42.4,13.8-48.8c0,0-5.7-1.9-10.4-4.7C108.7,68.7,99.4,93.4,92.5,126.5z"/>
	<path class="st0" d="M139.9,61.3c-13.2,8.2-14,8.9-18.5,12c0,0-5.6,14.1-12.9,47.8l11.9-3.8C120.3,117.4,124.2,96.2,139.9,61.3z"/>
	<path class="st0" d="M184.6,68.4c0,0-0.4,3.9-1.8,9.8c-3,10.5-7.3,19.4-12.2,19.4c-1.9,0-2.4-3.2-1.8-6c1.7-8.5,9.8-23.1,9.8-23.1
		s-8.9,2-11.3,2.9c-3.8,5.7-8,15.8-9.5,22.7l-5.1,1.2c0,0-5,13.3-12.2,13.3c-1.4,0-3.3-1.7-3.3-5.7c0-0.5,0-1,0-1.5
		c10.3-2.2,18.3-12.9,18.5-20.1c0.1-5-2.3-8.6-6.7-8.6c-8.9,0-23,18-23,34.2c0,12.5,6.5,17.2,12.1,17.2c10.3,0,16.6-10.7,20-19.5
		c1.5,4.2,4.6,5.9,7.4,5.9c1.5,0,3-0.6,4.5-1.5c-9.9,15.2-26.4,28.8-53.4,28.8c-21.7,0-30.9-14.6-30.9-14.6S73.7,132,66,139
		c0,0,14.1,19,46.8,19c67.1,0,81.8-86.6,81.8-91.7C194.6,66.3,188.2,67.3,184.6,68.4z M146.6,85.8c0,5.2-5,7.8-8.2,9
		C140.9,86.4,146.6,82.2,146.6,85.8z"/>
</g>
</svg>
